<mxfile host="app.diagrams.net" modified="2024-03-20T10:51:04.030Z" agent="Mozilla/5.0 (Windows NT 10.0; Win64; x64) AppleWebKit/537.36 (KHTML, like Gecko) Chrome/122.0.0.0 Safari/537.36" etag="PVtaOncor6gL2yVUogWm" version="23.1.5" type="device">
  <diagram name="Page-1" id="JNs2xkW7fJewY7WOyEJn">
    <mxGraphModel dx="3081" dy="2440" grid="1" gridSize="10" guides="1" tooltips="1" connect="1" arrows="1" fold="1" page="1" pageScale="1" pageWidth="850" pageHeight="1100" math="0" shadow="0">
      <root>
        <mxCell id="0" />
        <mxCell id="1" parent="0" />
        <mxCell id="dA9I28uLKZdWp3s0Nhxb-40" value="&lt;p style=&quot;margin:0px;margin-top:4px;margin-left:10px;text-align:left;&quot;&gt;&lt;b&gt;Knapsack-Problem&lt;/b&gt;&lt;/p&gt;" style="html=1;shape=mxgraph.sysml.package;align=left;spacingLeft=5;verticalAlign=top;spacingTop=-3;labelX=135;html=1;overflow=fill;" vertex="1" parent="1">
          <mxGeometry x="-30" y="-50" width="930" height="1150" as="geometry" />
        </mxCell>
        <mxCell id="dA9I28uLKZdWp3s0Nhxb-41" value="&lt;p style=&quot;margin:0px;margin-top:4px;text-align:center;&quot;&gt;Benutzer&lt;/p&gt;&lt;hr&gt;&lt;p style=&quot;margin:0px;margin-top:4px;text-align:center;&quot;&gt;&lt;br&gt;&lt;/p&gt;" style="shape=rect;html=1;overflow=fill;whiteSpace=wrap;" vertex="1" parent="1">
          <mxGeometry x="-20" y="-20" width="450" height="1110" as="geometry" />
        </mxCell>
        <mxCell id="dA9I28uLKZdWp3s0Nhxb-42" value="&lt;p style=&quot;margin:0px;margin-top:4px;text-align:center;&quot;&gt;Programm&lt;/p&gt;&lt;hr&gt;&lt;p style=&quot;margin:0px;margin-top:4px;text-align:center;&quot;&gt;&lt;br&gt;&lt;/p&gt;" style="shape=rect;html=1;overflow=fill;whiteSpace=wrap;" vertex="1" parent="1">
          <mxGeometry x="430" y="-20" width="460" height="1110" as="geometry" />
        </mxCell>
        <mxCell id="dA9I28uLKZdWp3s0Nhxb-43" value="" style="shape=ellipse;html=1;fillColor=strokeColor;strokeWidth=2;verticalLabelPosition=bottom;verticalAlignment=top;perimeter=ellipsePerimeter;" vertex="1" parent="1">
          <mxGeometry x="140" y="20" width="40" height="40" as="geometry" />
        </mxCell>
        <mxCell id="dA9I28uLKZdWp3s0Nhxb-46" value="" style="edgeStyle=elbowEdgeStyle;html=1;elbow=horizontal;align=right;verticalAlign=bottom;endArrow=none;rounded=0;labelBackgroundColor=none;startArrow=open;startSize=12;entryX=0.5;entryY=1;entryDx=0;entryDy=0;exitX=0.5;exitY=0;exitDx=0;exitDy=0;" edge="1" source="dA9I28uLKZdWp3s0Nhxb-49" parent="1" target="dA9I28uLKZdWp3s0Nhxb-43">
          <mxGeometry relative="1" as="geometry">
            <mxPoint x="440" y="190" as="targetPoint" />
            <mxPoint x="439.66666666666697" y="230" as="sourcePoint" />
          </mxGeometry>
        </mxCell>
        <mxCell id="dA9I28uLKZdWp3s0Nhxb-49" value="Knapsack-Problem Anwendungsszenario starten&amp;nbsp;" style="shape=rect;html=1;rounded=1;whiteSpace=wrap;align=center;" vertex="1" parent="1">
          <mxGeometry x="80" y="90" width="160" height="80" as="geometry" />
        </mxCell>
        <mxCell id="dA9I28uLKZdWp3s0Nhxb-52" value="Horizontale Flächen erfassen" style="shape=rect;html=1;rounded=1;whiteSpace=wrap;align=center;" vertex="1" parent="1">
          <mxGeometry x="615" y="90" width="160" height="80" as="geometry" />
        </mxCell>
        <mxCell id="dA9I28uLKZdWp3s0Nhxb-55" value="Benutzer auffordern, auf horizontale Flächen zu blicken" style="shape=rect;html=1;rounded=1;whiteSpace=wrap;align=center;" vertex="1" parent="1">
          <mxGeometry x="615" y="200" width="160" height="80" as="geometry" />
        </mxCell>
        <mxCell id="dA9I28uLKZdWp3s0Nhxb-57" value="Auf Tisch blicken" style="shape=rect;html=1;rounded=1;whiteSpace=wrap;align=center;" vertex="1" parent="1">
          <mxGeometry x="80" y="290" width="160" height="80" as="geometry" />
        </mxCell>
        <mxCell id="dA9I28uLKZdWp3s0Nhxb-64" value="" style="edgeStyle=elbowEdgeStyle;html=1;elbow=horizontal;align=right;verticalAlign=bottom;endArrow=none;rounded=0;labelBackgroundColor=none;startArrow=open;startSize=12;entryX=0.5;entryY=1;entryDx=0;entryDy=0;exitX=0.5;exitY=0;exitDx=0;exitDy=0;" edge="1" parent="1" source="dA9I28uLKZdWp3s0Nhxb-55" target="dA9I28uLKZdWp3s0Nhxb-52">
          <mxGeometry relative="1" as="geometry">
            <mxPoint x="170" y="200" as="targetPoint" />
            <mxPoint x="170" y="230" as="sourcePoint" />
          </mxGeometry>
        </mxCell>
        <mxCell id="dA9I28uLKZdWp3s0Nhxb-66" value="Inventar-Prefab platzieren&amp;nbsp;" style="shape=rect;html=1;rounded=1;whiteSpace=wrap;align=center;" vertex="1" parent="1">
          <mxGeometry x="615" y="380" width="160" height="80" as="geometry" />
        </mxCell>
        <mxCell id="dA9I28uLKZdWp3s0Nhxb-72" value="Gegenstand in das Inventar legen" style="shape=rect;html=1;rounded=1;whiteSpace=wrap;align=center;" vertex="1" parent="1">
          <mxGeometry x="80" y="530" width="160" height="80" as="geometry" />
        </mxCell>
        <mxCell id="dA9I28uLKZdWp3s0Nhxb-76" value="" style="shape=rhombus;html=1;verticalLabelPosition=bottom;verticalAlignment=top;" vertex="1" parent="1">
          <mxGeometry x="140" y="400" width="40" height="40" as="geometry" />
        </mxCell>
        <mxCell id="dA9I28uLKZdWp3s0Nhxb-77" value="" style="edgeStyle=elbowEdgeStyle;html=1;elbow=horizontal;align=right;verticalAlign=bottom;endArrow=none;rounded=0;labelBackgroundColor=none;startArrow=open;startSize=12;entryX=0.5;entryY=1;entryDx=0;entryDy=0;exitX=0.5;exitY=0;exitDx=0;exitDy=0;" edge="1" parent="1" source="dA9I28uLKZdWp3s0Nhxb-76" target="dA9I28uLKZdWp3s0Nhxb-57">
          <mxGeometry relative="1" as="geometry">
            <mxPoint x="170" y="200" as="targetPoint" />
            <mxPoint x="170" y="230" as="sourcePoint" />
          </mxGeometry>
        </mxCell>
        <mxCell id="dA9I28uLKZdWp3s0Nhxb-79" value="" style="edgeStyle=elbowEdgeStyle;html=1;elbow=horizontal;align=right;verticalAlign=bottom;endArrow=none;rounded=0;labelBackgroundColor=none;startArrow=open;startSize=12;entryX=0;entryY=0.5;entryDx=0;entryDy=0;exitX=1;exitY=0.5;exitDx=0;exitDy=0;" edge="1" parent="1" source="dA9I28uLKZdWp3s0Nhxb-76" target="dA9I28uLKZdWp3s0Nhxb-66">
          <mxGeometry relative="1" as="geometry">
            <mxPoint x="250" y="340" as="targetPoint" />
            <mxPoint x="685" y="340" as="sourcePoint" />
          </mxGeometry>
        </mxCell>
        <mxCell id="dA9I28uLKZdWp3s0Nhxb-80" value="" style="edgeStyle=elbowEdgeStyle;html=1;elbow=horizontal;align=right;verticalAlign=bottom;endArrow=none;rounded=0;labelBackgroundColor=none;startArrow=open;startSize=12;entryX=1;entryY=0.5;entryDx=0;entryDy=0;" edge="1" parent="1" target="dA9I28uLKZdWp3s0Nhxb-57">
          <mxGeometry relative="1" as="geometry">
            <mxPoint x="625" y="250" as="targetPoint" />
            <mxPoint x="700" y="380" as="sourcePoint" />
            <Array as="points">
              <mxPoint x="700" y="330" />
            </Array>
          </mxGeometry>
        </mxCell>
        <mxCell id="dA9I28uLKZdWp3s0Nhxb-85" value="" style="shape=rhombus;html=1;verticalLabelPosition=bottom;verticalAlignment=top;" vertex="1" parent="1">
          <mxGeometry x="675" y="550" width="40" height="40" as="geometry" />
        </mxCell>
        <mxCell id="dA9I28uLKZdWp3s0Nhxb-86" value="" style="edgeStyle=elbowEdgeStyle;html=1;elbow=horizontal;align=right;verticalAlign=bottom;endArrow=none;rounded=0;labelBackgroundColor=none;startArrow=open;startSize=12;entryX=1;entryY=0.5;entryDx=0;entryDy=0;exitX=0;exitY=0.5;exitDx=0;exitDy=0;" edge="1" parent="1" source="dA9I28uLKZdWp3s0Nhxb-85" target="dA9I28uLKZdWp3s0Nhxb-72">
          <mxGeometry relative="1" as="geometry">
            <mxPoint x="170" y="380" as="targetPoint" />
            <mxPoint x="170" y="410" as="sourcePoint" />
          </mxGeometry>
        </mxCell>
        <mxCell id="dA9I28uLKZdWp3s0Nhxb-88" value="Überschreitet maximale Kapazität?" style="text;html=1;align=center;verticalAlign=middle;resizable=0;points=[];autosize=1;strokeColor=none;fillColor=none;" vertex="1" parent="1">
          <mxGeometry x="440" y="540" width="210" height="30" as="geometry" />
        </mxCell>
        <mxCell id="dA9I28uLKZdWp3s0Nhxb-90" value="" style="edgeStyle=elbowEdgeStyle;html=1;elbow=horizontal;align=right;verticalAlign=bottom;endArrow=none;rounded=0;labelBackgroundColor=none;startArrow=open;startSize=12;entryX=0.5;entryY=1;entryDx=0;entryDy=0;exitX=0.5;exitY=0;exitDx=0;exitDy=0;" edge="1" parent="1" source="dA9I28uLKZdWp3s0Nhxb-95" target="dA9I28uLKZdWp3s0Nhxb-85">
          <mxGeometry relative="1" as="geometry">
            <mxPoint x="250" y="340" as="targetPoint" />
            <mxPoint x="595" y="590" as="sourcePoint" />
            <Array as="points" />
          </mxGeometry>
        </mxCell>
        <mxCell id="dA9I28uLKZdWp3s0Nhxb-91" value="[Ja]" style="text;html=1;align=center;verticalAlign=middle;resizable=0;points=[];autosize=1;strokeColor=none;fillColor=none;" vertex="1" parent="1">
          <mxGeometry x="620" y="590" width="40" height="30" as="geometry" />
        </mxCell>
        <mxCell id="dA9I28uLKZdWp3s0Nhxb-92" value="Knapsack-Wert und perfekte Lösung berechnen und dem Benutzer anzeigen" style="shape=rect;html=1;rounded=1;whiteSpace=wrap;align=center;" vertex="1" parent="1">
          <mxGeometry x="715" y="640" width="160" height="80" as="geometry" />
        </mxCell>
        <mxCell id="dA9I28uLKZdWp3s0Nhxb-93" value="" style="edgeStyle=elbowEdgeStyle;html=1;elbow=horizontal;align=right;verticalAlign=bottom;endArrow=none;rounded=0;labelBackgroundColor=none;startArrow=open;startSize=12;entryX=0.5;entryY=1;entryDx=0;entryDy=0;exitX=0.5;exitY=0;exitDx=0;exitDy=0;" edge="1" parent="1" source="dA9I28uLKZdWp3s0Nhxb-92" target="dA9I28uLKZdWp3s0Nhxb-85">
          <mxGeometry relative="1" as="geometry">
            <mxPoint x="705" y="540" as="targetPoint" />
            <mxPoint x="605" y="600" as="sourcePoint" />
            <Array as="points" />
          </mxGeometry>
        </mxCell>
        <mxCell id="dA9I28uLKZdWp3s0Nhxb-94" value="[Nein]" style="text;html=1;align=center;verticalAlign=middle;resizable=0;points=[];autosize=1;strokeColor=none;fillColor=none;" vertex="1" parent="1">
          <mxGeometry x="715" y="590" width="50" height="30" as="geometry" />
        </mxCell>
        <mxCell id="dA9I28uLKZdWp3s0Nhxb-95" value="Benutzer anhand eines Fehlers informieren" style="shape=rect;html=1;rounded=1;whiteSpace=wrap;align=center;" vertex="1" parent="1">
          <mxGeometry x="515" y="640" width="160" height="80" as="geometry" />
        </mxCell>
        <mxCell id="dA9I28uLKZdWp3s0Nhxb-100" value="" style="edgeStyle=elbowEdgeStyle;html=1;elbow=horizontal;align=right;verticalAlign=bottom;endArrow=none;rounded=0;labelBackgroundColor=none;startArrow=open;startSize=12;exitX=1;exitY=0.5;exitDx=0;exitDy=0;entryX=0;entryY=0.5;entryDx=0;entryDy=0;" edge="1" parent="1" source="dA9I28uLKZdWp3s0Nhxb-101" target="dA9I28uLKZdWp3s0Nhxb-95">
          <mxGeometry relative="1" as="geometry">
            <mxPoint x="600" y="790" as="targetPoint" />
            <mxPoint x="685" y="520" as="sourcePoint" />
            <Array as="points">
              <mxPoint x="380" y="700" />
            </Array>
          </mxGeometry>
        </mxCell>
        <mxCell id="dA9I28uLKZdWp3s0Nhxb-101" value="Gegenstand aus dem Knapsack entfernen" style="shape=rect;html=1;rounded=1;whiteSpace=wrap;align=center;" vertex="1" parent="1">
          <mxGeometry x="80" y="640" width="160" height="80" as="geometry" />
        </mxCell>
        <mxCell id="dA9I28uLKZdWp3s0Nhxb-106" value="" style="shape=rhombus;html=1;verticalLabelPosition=bottom;verticalAlignment=top;" vertex="1" parent="1">
          <mxGeometry x="140" y="760" width="40" height="40" as="geometry" />
        </mxCell>
        <mxCell id="dA9I28uLKZdWp3s0Nhxb-107" value="" style="edgeStyle=elbowEdgeStyle;html=1;elbow=horizontal;align=right;verticalAlign=bottom;endArrow=none;rounded=0;labelBackgroundColor=none;startArrow=open;startSize=12;entryX=0.5;entryY=1;entryDx=0;entryDy=0;exitX=0.5;exitY=0;exitDx=0;exitDy=0;" edge="1" parent="1" source="dA9I28uLKZdWp3s0Nhxb-106">
          <mxGeometry relative="1" as="geometry">
            <mxPoint x="160" y="720" as="targetPoint" />
            <mxPoint x="170" y="650" as="sourcePoint" />
          </mxGeometry>
        </mxCell>
        <mxCell id="dA9I28uLKZdWp3s0Nhxb-108" value="Zufrieden mit Lösung?" style="text;html=1;align=center;verticalAlign=middle;resizable=0;points=[];autosize=1;strokeColor=none;fillColor=none;" vertex="1" parent="1">
          <mxGeometry x="160" y="720" width="140" height="30" as="geometry" />
        </mxCell>
        <mxCell id="dA9I28uLKZdWp3s0Nhxb-110" value="" style="edgeStyle=elbowEdgeStyle;html=1;elbow=horizontal;align=right;verticalAlign=bottom;endArrow=none;rounded=0;labelBackgroundColor=none;startArrow=open;startSize=12;entryX=0;entryY=0.5;entryDx=0;entryDy=0;exitX=0;exitY=0.5;exitDx=0;exitDy=0;" edge="1" parent="1" source="dA9I28uLKZdWp3s0Nhxb-76" target="dA9I28uLKZdWp3s0Nhxb-106">
          <mxGeometry relative="1" as="geometry">
            <mxPoint x="170" y="730" as="targetPoint" />
            <mxPoint x="140" y="490" as="sourcePoint" />
            <Array as="points">
              <mxPoint x="30" y="730" />
            </Array>
          </mxGeometry>
        </mxCell>
        <mxCell id="dA9I28uLKZdWp3s0Nhxb-111" value="[Nein]" style="text;html=1;align=center;verticalAlign=middle;resizable=0;points=[];autosize=1;strokeColor=none;fillColor=none;" vertex="1" parent="1">
          <mxGeometry x="-20" y="600" width="50" height="30" as="geometry" />
        </mxCell>
        <mxCell id="dA9I28uLKZdWp3s0Nhxb-113" value="" style="edgeStyle=elbowEdgeStyle;html=1;elbow=horizontal;align=right;verticalAlign=bottom;endArrow=none;rounded=0;labelBackgroundColor=none;startArrow=open;startSize=12;entryX=0.5;entryY=1;entryDx=0;entryDy=0;exitX=0.5;exitY=0;exitDx=0;exitDy=0;" edge="1" parent="1">
          <mxGeometry relative="1" as="geometry">
            <mxPoint x="159.5" y="800" as="targetPoint" />
            <mxPoint x="159.5" y="840" as="sourcePoint" />
          </mxGeometry>
        </mxCell>
        <mxCell id="dA9I28uLKZdWp3s0Nhxb-114" value="[Ja]" style="text;html=1;align=center;verticalAlign=middle;resizable=0;points=[];autosize=1;strokeColor=none;fillColor=none;" vertex="1" parent="1">
          <mxGeometry x="160" y="800" width="40" height="30" as="geometry" />
        </mxCell>
        <mxCell id="dA9I28uLKZdWp3s0Nhxb-115" value="" style="html=1;shape=mxgraph.sysml.actFinal;strokeWidth=2;verticalLabelPosition=bottom;verticalAlignment=top;" vertex="1" parent="1">
          <mxGeometry x="140" y="840" width="40" height="40" as="geometry" />
        </mxCell>
        <mxCell id="dA9I28uLKZdWp3s0Nhxb-117" value="Perfekte Lösung anzeigen" style="shape=rect;html=1;rounded=1;whiteSpace=wrap;align=center;" vertex="1" parent="1">
          <mxGeometry x="605" y="895" width="160" height="80" as="geometry" />
        </mxCell>
        <mxCell id="dA9I28uLKZdWp3s0Nhxb-119" value="Perfekte Lösung anzeigen Knopf gedrückt" style="html=1;shape=mxgraph.sysml.accEvent;strokeWidth=2;whiteSpace=wrap;align=center;" vertex="1" parent="1">
          <mxGeometry x="95" y="900" width="130" height="70" as="geometry" />
        </mxCell>
        <mxCell id="dA9I28uLKZdWp3s0Nhxb-125" value="" style="edgeStyle=elbowEdgeStyle;html=1;elbow=horizontal;align=right;verticalAlign=bottom;endArrow=none;rounded=0;labelBackgroundColor=none;startArrow=open;startSize=12;entryX=1;entryY=0.5;entryDx=0;entryDy=0;exitX=0;exitY=0.5;exitDx=0;exitDy=0;" edge="1" parent="1" source="dA9I28uLKZdWp3s0Nhxb-52" target="dA9I28uLKZdWp3s0Nhxb-49">
          <mxGeometry relative="1" as="geometry">
            <mxPoint x="625" y="250" as="targetPoint" />
            <mxPoint x="190" y="250" as="sourcePoint" />
          </mxGeometry>
        </mxCell>
        <mxCell id="dA9I28uLKZdWp3s0Nhxb-129" value="" style="edgeStyle=elbowEdgeStyle;html=1;elbow=horizontal;align=right;verticalAlign=bottom;endArrow=none;rounded=0;labelBackgroundColor=none;startArrow=open;startSize=12;entryX=0.5;entryY=1;entryDx=0;entryDy=0;exitX=0.5;exitY=0;exitDx=0;exitDy=0;" edge="1" parent="1" source="dA9I28uLKZdWp3s0Nhxb-72" target="dA9I28uLKZdWp3s0Nhxb-76">
          <mxGeometry relative="1" as="geometry">
            <mxPoint x="160" y="510" as="targetPoint" />
            <mxPoint x="170" y="480" as="sourcePoint" />
          </mxGeometry>
        </mxCell>
        <mxCell id="dA9I28uLKZdWp3s0Nhxb-133" value="" style="edgeStyle=elbowEdgeStyle;html=1;elbow=horizontal;align=right;verticalAlign=bottom;endArrow=none;rounded=0;labelBackgroundColor=none;startArrow=open;startSize=12;entryX=0.5;entryY=1;entryDx=0;entryDy=0;exitX=1;exitY=0.5;exitDx=0;exitDy=0;" edge="1" parent="1" source="dA9I28uLKZdWp3s0Nhxb-106" target="dA9I28uLKZdWp3s0Nhxb-92">
          <mxGeometry relative="1" as="geometry">
            <mxPoint x="774.9999999999995" y="780" as="targetPoint" />
            <mxPoint x="695" y="600" as="sourcePoint" />
            <Array as="points">
              <mxPoint x="795" y="760" />
            </Array>
          </mxGeometry>
        </mxCell>
        <mxCell id="dA9I28uLKZdWp3s0Nhxb-135" value="" style="html=1;shape=mxgraph.sysml.flowFinal;strokeWidth=2;verticalLabelPosition=bottom;verticalAlignment=top;" vertex="1" parent="1">
          <mxGeometry x="665" y="1030" width="40" height="40" as="geometry" />
        </mxCell>
        <mxCell id="dA9I28uLKZdWp3s0Nhxb-136" value="" style="edgeStyle=elbowEdgeStyle;html=1;elbow=horizontal;align=right;verticalAlign=bottom;endArrow=none;rounded=0;labelBackgroundColor=none;startArrow=open;startSize=12;exitX=0.5;exitY=0;exitDx=0;exitDy=0;exitPerimeter=0;entryX=0.5;entryY=1;entryDx=0;entryDy=0;" edge="1" parent="1" source="dA9I28uLKZdWp3s0Nhxb-135" target="dA9I28uLKZdWp3s0Nhxb-117">
          <mxGeometry relative="1" as="geometry">
            <mxPoint x="169.5" y="810" as="targetPoint" />
            <mxPoint x="590" y="1030" as="sourcePoint" />
            <Array as="points" />
          </mxGeometry>
        </mxCell>
        <mxCell id="dA9I28uLKZdWp3s0Nhxb-137" value="" style="edgeStyle=elbowEdgeStyle;html=1;elbow=horizontal;align=right;verticalAlign=bottom;endArrow=none;rounded=0;labelBackgroundColor=none;startArrow=open;startSize=12;entryX=1;entryY=0.5;entryDx=0;entryDy=0;exitX=0;exitY=0.5;exitDx=0;exitDy=0;entryPerimeter=0;" edge="1" parent="1" source="dA9I28uLKZdWp3s0Nhxb-117" target="dA9I28uLKZdWp3s0Nhxb-119">
          <mxGeometry relative="1" as="geometry">
            <mxPoint x="784.9999999999995" y="790" as="targetPoint" />
            <mxPoint x="190" y="790" as="sourcePoint" />
          </mxGeometry>
        </mxCell>
        <mxCell id="dA9I28uLKZdWp3s0Nhxb-139" value="" style="shape=rect;html=1;fillColor=strokeColor;verticalLabelPosition=bottom;labelBackgroundColor=#ffffff;verticalAlign=top;direction=west;rotation=90;" vertex="1" parent="1">
          <mxGeometry x="156" y="210" width="4" height="80" as="geometry" />
        </mxCell>
        <mxCell id="dA9I28uLKZdWp3s0Nhxb-140" value="" style="edgeStyle=elbowEdgeStyle;html=1;elbow=horizontal;rounded=0;endArrow=open;strokeWidth=3;endSize=12;exitX=-0.058;exitY=0.525;exitDx=0;exitDy=0;exitPerimeter=0;" edge="1" source="dA9I28uLKZdWp3s0Nhxb-139" parent="1">
          <mxGeometry relative="1" as="geometry">
            <mxPoint x="159" y="290" as="targetPoint" />
            <mxPoint x="-189.99999999999977" y="129.57999999999998" as="sourcePoint" />
          </mxGeometry>
        </mxCell>
        <mxCell id="dA9I28uLKZdWp3s0Nhxb-144" value="" style="edgeStyle=elbowEdgeStyle;html=1;elbow=vertical;startArrow=open;endArrow=none;rounded=0;strokeWidth=3;startSize=12;entryX=0.5;entryY=1;entryDx=0;entryDy=0;exitX=0.314;exitY=0.523;exitDx=0;exitDy=0;entryPerimeter=0;exitPerimeter=0;" edge="1" parent="1">
          <mxGeometry relative="1" as="geometry">
            <mxPoint x="139.82" y="170" as="targetPoint" />
            <mxPoint x="139.65999999999968" y="250.7439999999997" as="sourcePoint" />
          </mxGeometry>
        </mxCell>
        <mxCell id="dA9I28uLKZdWp3s0Nhxb-150" value="" style="edgeStyle=elbowEdgeStyle;html=1;elbow=vertical;startArrow=open;endArrow=none;rounded=0;strokeWidth=3;startSize=12;entryX=0;entryY=0.25;entryDx=0;entryDy=0;exitX=1;exitY=0.75;exitDx=0;exitDy=0;" edge="1" parent="1" source="dA9I28uLKZdWp3s0Nhxb-139" target="dA9I28uLKZdWp3s0Nhxb-55">
          <mxGeometry relative="1" as="geometry">
            <mxPoint x="170" y="180" as="targetPoint" />
            <mxPoint x="170" y="261" as="sourcePoint" />
            <Array as="points">
              <mxPoint x="390" y="220" />
            </Array>
          </mxGeometry>
        </mxCell>
      </root>
    </mxGraphModel>
  </diagram>
</mxfile>
